# xmcd
#
# Track frame offsets: 
#        182
#        15862
#        27590
#        46122
#        65685
#        79485
#        90960
#        105102
#        121467
#        152965
#        164872
#        180767
#        210880
#        230867
#        253017
#        265530
#
# Disc length: 3680 seconds
#
# Revision: 9
# Processed by: cddbd v1.5.2PL0 Copyright (c) Steve Scherf et al.
# Submitted via: ExactAudioCopyFreeDBPlugin 1.0
#
DISCID=c40e5e10
DTITLE=Nina Simone - Verve Jazz Masters 17 - Nina Simone
DYEAR=1993
DGENRE=Jazz
TTITLE0=Black is the Colour of my True Love's Hair
TTITLE1=I Put a Spell on You
TTITLE2=Love Me or Leave Me
TTITLE3=Little Girl Blue
TTITLE4=My Baby Just Cares for Me
TTITLE5=I Loves You Porgy
TTITLE6=Work Song
TTITLE7=Ne Me Quitte Pas
TTITLE8=Wild is the Wind
TTITLE9=See-Line Woman
TTITLE10=Strange Fruit
TTITLE11=Pirate Jenny
TTITLE12=Four Women
TTITLE13=Mississippi Goddamn
TTITLE14=Don't Let Me Be Misunderstood
TTITLE15=I Hold No Grudge
EXTD=YEAR: 1993 ID3G: 8
EXTT0=
EXTT1=
EXTT2=
EXTT3=
EXTT4=
EXTT5=
EXTT6=
EXTT7=
EXTT8=
EXTT9=
EXTT10=
EXTT11=
EXTT12=
EXTT13=
EXTT14=
EXTT15=
PLAYORDER=
